<svg width="336" height="76" viewBox="0 0 336 76" fill="none" xmlns="http://www.w3.org/2000/svg">
<path d="M23.1626 8.45454H18.5987V21.669H15.0639L7.48722 8.45454H1.84943L10.9474 23.0114L1.16335 39H6.48793L14.2734 25.9645H18.5987V39H23.1626V25.9645H27.5327L35.2138 39H40.598L30.8736 23.0412L39.9418 8.45454H34.3189L26.8018 21.669H23.1626V8.45454ZM51.4187 39.5071C55.207 39.5071 57.3398 37.5831 58.19 35.8679H58.369V39H62.7241V23.7869C62.7241 17.12 57.4741 15.7926 53.8349 15.7926C49.6886 15.7926 45.8704 17.4631 44.3789 21.6392L48.57 22.5938C49.2262 20.968 50.8967 19.402 53.8945 19.402C56.7731 19.402 58.2496 20.9084 58.2496 23.5036V23.608C58.2496 25.2337 56.5792 25.2038 52.4627 25.6811C48.1225 26.1882 43.6779 27.3217 43.6779 32.527C43.6779 37.0312 47.0636 39.5071 51.4187 39.5071ZM52.3881 35.9276C49.8675 35.9276 48.0479 34.794 48.0479 32.5866C48.0479 30.2003 50.1658 29.3501 52.7461 29.0071C54.1928 28.8132 57.6232 28.4254 58.2646 27.7841V30.7372C58.2646 33.4517 56.1019 35.9276 52.3881 35.9276ZM68.6639 39H73.1234V29.8423H76.0169L82.9224 39H88.4558L79.4771 27.2322L88.3514 16.0909H82.8329L75.2711 25.696H73.1234V16.0909H68.6639V39ZM103.9 24.1598H90.3574V28.0227H103.9V24.1598ZM110.202 8.45454V39H114.437L129.964 16.598H130.247V39H134.856V8.45454H130.59L115.049 30.8864H114.765V8.45454H110.202ZM141.221 39H152.168C157.179 39 160.118 36.4645 160.118 32.8253C160.118 29.4247 157.507 27.3366 154.45 26.9787C157.269 26.4418 159.133 24.8906 159.133 22.206C159.133 18.4474 155.882 16.0909 150.721 16.0909H141.221V39ZM145.412 35.2713V28.9027H152.168C154.375 28.9027 155.703 30.2003 155.703 32.3331C155.703 34.1527 154.375 35.2713 152.168 35.2713H145.412ZM145.412 25.6364V19.8643H150.721C153.257 19.8643 154.793 20.9233 154.793 22.6832C154.793 24.5178 153.272 25.6364 150.766 25.6364H145.412ZM194.574 39H200.197L187.594 22.2656L200.272 8.45454H194.559L182.672 21.3558H181.091V8.45454H176.483V39H181.091V25.3082H184.253L194.574 39ZM205.645 47.5312C209.329 47.5312 211.67 45.6072 212.983 42.0575L222.454 16.1357L217.636 16.0909L211.835 33.8693H211.596L205.794 16.0909H201.021L209.403 39.2983L208.852 40.8196C207.718 43.7876 206.122 44.0561 203.676 43.3849L202.602 47.0391C203.139 47.2926 204.303 47.5312 205.645 47.5312ZM235.486 39.4624C240.9 39.4624 244.405 36.2109 244.897 31.7514H240.557C239.99 34.2273 238.066 35.6889 235.515 35.6889C231.742 35.6889 229.311 32.5419 229.311 27.5455C229.311 22.6385 231.787 19.5511 235.515 19.5511C238.349 19.5511 240.079 21.3409 240.557 23.4886H244.897C244.42 18.8651 240.646 15.7926 235.441 15.7926C228.983 15.7926 224.807 20.6548 224.807 27.6499C224.807 34.5554 228.834 39.4624 235.486 39.4624ZM247.932 19.9389H255.434V39H259.789V19.9389H267.262V16.0909H247.932V19.9389ZM280.562 39.4624C287.02 39.4624 291.241 34.7344 291.241 27.6499C291.241 20.5206 287.02 15.7926 280.562 15.7926C274.104 15.7926 269.883 20.5206 269.883 27.6499C269.883 34.7344 274.104 39.4624 280.562 39.4624ZM280.577 35.7188C276.356 35.7188 274.387 32.0348 274.387 27.6349C274.387 23.25 276.356 19.5213 280.577 19.5213C284.768 19.5213 286.737 23.25 286.737 27.6349C286.737 32.0348 284.768 35.7188 280.577 35.7188Z" fill="white"/>
<path d="M1.58523 59.9091V73H3.11932L10.2528 62.7216H10.3807V73H11.9659V59.9091H10.4318L3.27273 70.2131H3.14489V59.9091H1.58523ZM18.9221 73.2045C21.0953 73.2045 22.5272 71.875 22.7828 70.1364H21.2743C20.9931 71.2102 20.0982 71.8494 18.9221 71.8494C17.1323 71.8494 15.9817 70.3665 15.9817 68.0909C15.9817 65.8665 17.1578 64.4091 18.9221 64.4091C20.2516 64.4091 21.0442 65.2273 21.2743 66.1222H22.7828C22.5272 64.2812 20.9675 63.054 18.8965 63.054C16.2374 63.054 14.4732 65.1506 14.4732 68.142C14.4732 71.0824 16.1607 73.2045 18.9221 73.2045ZM28.9767 73.2045C31.15 73.2045 32.5819 71.875 32.8375 70.1364H31.329C31.0478 71.2102 30.1529 71.8494 28.9767 71.8494C27.187 71.8494 26.0364 70.3665 26.0364 68.0909C26.0364 65.8665 27.2125 64.4091 28.9767 64.4091C30.3063 64.4091 31.0989 65.2273 31.329 66.1222H32.8375C32.5819 64.2812 31.0222 63.054 28.9512 63.054C26.2921 63.054 24.5279 65.1506 24.5279 68.142C24.5279 71.0824 26.2154 73.2045 28.9767 73.2045ZM34.1735 73H34.6848C36.8581 73 37.4846 71.3125 37.6252 68.0909L37.7786 64.5881H41.3837V73H42.8922V63.1818H36.3468L36.1678 67.5284C36.04 70.8267 35.7076 71.5938 34.5314 71.5938H34.1735V73ZM49.7765 73.2045C51.7708 73.2045 53.2282 72.2074 53.6884 70.7244L52.231 70.3153C51.8475 71.3381 50.959 71.8494 49.7765 71.8494C48.0059 71.8494 46.785 70.7053 46.7147 68.6023H53.8418V67.9631C53.8418 64.3068 51.6685 63.054 49.623 63.054C46.964 63.054 45.1998 65.1506 45.1998 68.1676C45.1998 71.1847 46.9384 73.2045 49.7765 73.2045ZM46.7147 67.2983C46.8169 65.7706 47.8972 64.4091 49.623 64.4091C51.2594 64.4091 52.3077 65.6364 52.3077 67.2983H46.7147ZM55.0882 75.8125H56.5968V73H63.8581V75.8125H65.3667V71.5938H63.8581V63.1818H57.6195L57.2871 67.0682C57.0506 69.8168 56.699 70.7628 55.9064 71.5938H55.0882V75.8125ZM57.6195 71.5938C58.3098 70.6861 58.5591 69.12 58.7701 67.0682L59.0257 64.5881H62.3496V71.5938H57.6195ZM71.3576 73.2045C74.0167 73.2045 75.8065 71.1847 75.8065 68.142C75.8065 65.0739 74.0167 63.054 71.3576 63.054C68.6985 63.054 66.9087 65.0739 66.9087 68.142C66.9087 71.1847 68.6985 73.2045 71.3576 73.2045ZM71.3576 71.8494C69.3377 71.8494 68.4173 70.1108 68.4173 68.142C68.4173 66.1733 69.3377 64.4091 71.3576 64.4091C73.3775 64.4091 74.2979 66.1733 74.2979 68.142C74.2979 70.1108 73.3775 71.8494 71.3576 71.8494ZM78.1092 73H82.737C84.7314 73 85.9331 71.875 85.9331 70.3665C85.9331 68.826 84.7633 67.995 83.6831 67.8352C84.7889 67.6051 85.5751 66.9851 85.5751 65.7898C85.5751 64.2237 84.2328 63.1818 82.1234 63.1818H78.1092V73ZM79.541 71.6193V68.6023H82.737C83.7726 68.6023 84.399 69.2223 84.399 70.2386C84.399 71.0952 83.7726 71.6193 82.737 71.6193H79.541ZM79.541 67.2983V64.5625H82.1234C83.3315 64.5625 84.0666 65.0675 84.0666 65.892C84.0666 66.7678 83.3315 67.2983 82.1234 67.2983H79.541ZM91.1058 73.2301C92.8189 73.2301 93.7138 72.3097 94.0206 71.6705H94.0973V73H95.6058V66.5312C95.6058 63.4119 93.228 63.054 91.9751 63.054C90.4922 63.054 88.8047 63.5653 88.0376 65.3551L89.4695 65.8665C89.8018 65.1506 90.5881 64.3835 92.0263 64.3835C93.4134 64.3835 94.0973 65.1186 94.0973 66.3778V66.429C94.0973 67.1577 93.3558 67.0938 91.5661 67.3239C89.7443 67.5604 87.7564 67.9631 87.7564 70.2131C87.7564 72.1307 89.2393 73.2301 91.1058 73.2301ZM91.3359 71.875C90.1342 71.875 89.2649 71.3381 89.2649 70.2898C89.2649 69.1392 90.3132 68.7812 91.4893 68.6278C92.1286 68.5511 93.8416 68.3722 94.0973 68.0653V69.446C94.0973 70.6733 93.1257 71.875 91.3359 71.875ZM97.0233 64.5881H100.27V73H101.779V64.5881H105.001V63.1818H97.0233V64.5881ZM110.808 73.2045C112.802 73.2045 114.259 72.2074 114.72 70.7244L113.262 70.3153C112.879 71.3381 111.99 71.8494 110.808 71.8494C109.037 71.8494 107.816 70.7053 107.746 68.6023H114.873V67.9631C114.873 64.3068 112.7 63.054 110.654 63.054C107.995 63.054 106.231 65.1506 106.231 68.1676C106.231 71.1847 107.97 73.2045 110.808 73.2045ZM107.746 67.2983C107.848 65.7706 108.928 64.4091 110.654 64.4091C112.291 64.4091 113.339 65.6364 113.339 67.2983H107.746ZM116.298 73H116.81C118.983 73 119.61 71.3125 119.75 68.0909L119.904 64.5881H123.509V73H125.017V63.1818H118.472L118.293 67.5284C118.165 70.8267 117.833 71.5938 116.656 71.5938H116.298V73ZM129.294 66.7358V63.1818H127.785V73H131.901C134.203 73 135.455 71.5938 135.455 69.8295C135.455 68.0398 134.203 66.7358 131.901 66.7358H129.294ZM129.294 68.142H131.901C133.097 68.142 133.947 68.8707 133.947 69.9062C133.947 70.897 133.097 71.5938 131.901 71.5938H129.294V68.142ZM146.803 73.2045C149.462 73.2045 151.252 71.1847 151.252 68.142C151.252 65.0739 149.462 63.054 146.803 63.054C144.144 63.054 142.354 65.0739 142.354 68.142C142.354 71.1847 144.144 73.2045 146.803 73.2045ZM146.803 71.8494C144.783 71.8494 143.863 70.1108 143.863 68.142C143.863 66.1733 144.783 64.4091 146.803 64.4091C148.823 64.4091 149.743 66.1733 149.743 68.142C149.743 70.1108 148.823 71.8494 146.803 71.8494ZM153.555 73H155.063V68.858H156.418L159.64 73H161.583L157.569 67.9119L161.532 63.1818H159.589L156.06 67.4517H155.063V63.1818H153.555V73ZM166.935 73.2045C168.929 73.2045 170.386 72.2074 170.847 70.7244L169.389 70.3153C169.006 71.3381 168.117 71.8494 166.935 71.8494C165.164 71.8494 163.943 70.7053 163.873 68.6023H171V67.9631C171 64.3068 168.827 63.054 166.781 63.054C164.122 63.054 162.358 65.1506 162.358 68.1676C162.358 71.1847 164.097 73.2045 166.935 73.2045ZM163.873 67.2983C163.975 65.7706 165.055 64.4091 166.781 64.4091C168.418 64.4091 169.466 65.6364 169.466 67.2983H163.873ZM176.184 73.2301C177.897 73.2301 178.792 72.3097 179.099 71.6705H179.175V73H180.684V66.5312C180.684 63.4119 178.306 63.054 177.053 63.054C175.57 63.054 173.883 63.5653 173.116 65.3551L174.548 65.8665C174.88 65.1506 175.666 64.3835 177.104 64.3835C178.491 64.3835 179.175 65.1186 179.175 66.3778V66.429C179.175 67.1577 178.434 67.0938 176.644 67.3239C174.822 67.5604 172.835 67.9631 172.835 70.2131C172.835 72.1307 174.317 73.2301 176.184 73.2301ZM176.414 71.875C175.212 71.875 174.343 71.3381 174.343 70.2898C174.343 69.1392 175.391 68.7812 176.567 68.6278C177.207 68.5511 178.92 68.3722 179.175 68.0653V69.446C179.175 70.6733 178.204 71.875 176.414 71.875ZM184.946 63.1818H183.437V73H184.946V68.8068H189.65V73H191.159V63.1818H189.65V67.4006H184.946V63.1818ZM196.803 73.2301C198.516 73.2301 199.411 72.3097 199.718 71.6705H199.795V73H201.303V66.5312C201.303 63.4119 198.925 63.054 197.672 63.054C196.189 63.054 194.502 63.5653 193.735 65.3551L195.167 65.8665C195.499 65.1506 196.285 64.3835 197.724 64.3835C199.111 64.3835 199.795 65.1186 199.795 66.3778V66.429C199.795 67.1577 199.053 67.0938 197.263 67.3239C195.442 67.5604 193.454 67.9631 193.454 70.2131C193.454 72.1307 194.937 73.2301 196.803 73.2301ZM197.033 71.875C195.831 71.875 194.962 71.3381 194.962 70.2898C194.962 69.1392 196.01 68.7812 197.187 68.6278C197.826 68.5511 199.539 68.3722 199.795 68.0653V69.446C199.795 70.6733 198.823 71.875 197.033 71.875Z" fill="white"/>
<rect x="312.5" y="15.5" width="23" height="23" stroke="white"/>
<path d="M329 23.3283L321.604 30.7666L320.283 29.4194L327.66 22L329 23.3283ZM319 32L320.962 31.4118L319.585 30.0835L319 32Z" fill="white"/>
</svg>
